<svg width="40" height="40" viewBox="0 0 40 40" fill="none" xmlns="http://www.w3.org/2000/svg">
<path d="M23.9711 31.2543V31.2913C23.8432 31.8427 23.5197 32.3361 23.0543 32.6894C22.5889 33.0428 22.0095 33.235 21.4126 33.234H17.6521C16.9632 33.234 16.3025 32.9751 15.8154 32.5145C15.3283 32.0537 15.0546 31.429 15.0546 30.7775C15.0546 30.7044 16.799 18.6798 16.799 18.6798C17.2508 19.1972 17.8208 19.6107 18.4662 19.8895L23.7385 22.1992C24.1277 22.4193 24.4503 22.7307 24.675 23.1033C24.8997 23.4758 25.019 23.8968 25.0215 24.3256C24.9786 24.3626 25.0215 24.8756 23.9711 31.2543ZM30.9097 24.5457C31.6465 20.3664 27.8088 18.6437 27.6535 18.5699C27.4209 18.4598 21.2182 16.1503 19.3966 15.1974C17.5358 14.2077 18.001 12.008 18.0401 11.7881L18.7379 6.98599C19.0095 5.11635 18.7379 3.72358 17.9629 2.87983C17.2651 2.10998 16.2957 2 15.8305 2H13.8926L9.12451 29.5677C8.62026 32.4641 9.74505 34.4068 10.7526 35.5435C12.1091 37.0462 14.1642 38 16.1412 38H22.4603C26.2207 38 29.3988 35.1775 29.6704 31.5843C29.8258 30.5575 30.2901 27.955 30.9097 24.5457Z" fill="white"/>
</svg>
