<svg width="512" height="210" viewBox="0 0 512 210" fill="none" xmlns="http://www.w3.org/2000/svg">
<path fill-rule="evenodd" clip-rule="evenodd" d="M358.933 6.75764V58.2069H393.008C427.098 58.2069 456.953 81.0798 466.058 113.871C473.435 140.443 465.801 169.054 446.014 188.348C426.387 207.486 397.947 214.473 371.703 206.605L370.212 206.158C337.144 196.243 314.491 165.774 314.491 131.208V6.75765C314.491 3.0255 317.512 0 321.24 0H352.185C355.912 0 358.933 3.0255 358.933 6.75764ZM358.933 131.208V102.71H393.008C407.037 102.71 419.454 112.159 423.239 125.792C426.287 136.77 423.109 148.567 415.01 156.464C406.939 164.334 395.242 167.208 384.451 163.972L382.959 163.525C368.701 159.25 358.933 146.112 358.933 131.208Z" fill="white"/>
<path d="M103.959 209.487C100.233 209.487 97.2109 206.462 97.2109 202.729V125.487C97.2109 117.805 94.7883 111.639 89.9432 106.989C85.2995 102.137 79.3438 99.7112 72.0756 99.7112C67.0283 99.7112 62.5866 100.822 58.7507 103.047C54.9148 105.068 51.8864 108.101 49.6655 112.144C47.4447 115.985 46.3343 120.433 46.3343 125.487L28.4668 116.693C28.4668 105.169 30.8896 95.0612 35.735 86.3682C40.5804 77.6747 47.3438 71.0032 56.0252 66.3533C64.7065 61.5014 74.7002 59.0754 86.0063 59.0754C97.5139 59.0754 107.609 61.5014 116.29 66.3533C124.971 71.0032 131.634 77.5735 136.277 86.0647C141.123 94.3535 143.545 104.058 143.545 115.177V202.729C143.545 206.462 140.524 209.487 136.797 209.487H103.959ZM6.74853 209.487C3.02141 209.487 0 206.462 0 202.729V6.75766C0 3.02551 3.02141 0 6.74853 0H39.5858C43.3129 0 46.3343 3.0255 46.3343 6.75765V202.729C46.3343 206.462 43.3129 209.487 39.5858 209.487H6.74853Z" fill="white"/>
<path d="M229.076 209.444C215.549 209.444 203.536 206.715 193.038 201.256C182.741 195.596 174.666 187.913 168.811 178.21C162.956 168.303 160.028 156.982 160.028 144.245V65.0426C160.028 61.3104 163.05 58.2849 166.777 58.2849H199.615C203.341 58.2849 206.363 61.3104 206.363 65.0426V143.639C206.363 148.693 207.171 153.04 208.786 156.679C210.603 160.318 213.227 163.148 216.66 165.169C220.091 167.192 224.23 168.202 229.076 168.202C235.94 168.202 241.392 166.08 245.429 161.834C249.467 157.387 251.486 151.321 251.486 143.639V65.0426C251.486 61.3104 254.508 58.2849 258.234 58.2849H291.072C294.799 58.2849 297.82 61.3104 297.82 65.0426V143.942C297.82 156.881 294.893 168.303 289.038 178.21C283.183 187.913 275.108 195.596 264.811 201.256C254.514 206.715 242.603 209.444 229.076 209.444Z" fill="white"/>
<path d="M469.318 183.622L469.064 209.366L487.87 209.604C498.358 209.737 507.683 202.946 510.791 192.915L511 192.238C513.064 185.576 511.895 178.33 507.839 172.658L507.132 171.669C501.094 163.225 489.777 160.506 480.571 165.288C473.722 168.845 469.394 175.897 469.318 183.622Z" fill="#FF5E27"/>
</svg>
